<svg height="100" viewBox="0 0 100 100" width="100" xmlns="http://www.w3.org/2000/svg"><g fill="#fff" fill-rule="evenodd"><path d="m50.0004412 0c-27.6133165 0-50.0004412 22.3848726-50.0004412 49.9995588 0 27.6138038 22.3871247 50.0004412 50.0004412 50.0004412s49.9995588-22.3866374 49.9995588-50.0004412c0-27.6146862-22.3871247-49.9995588-49.9995588-49.9995588z" fill-rule="evenodd" height="100%" width="100%"/><path d="m50.000441.5c-27.33782 0-49.500441 22.161661-49.500441 49.499559 0 27.337492 22.163098 49.500441 49.500441 49.500441 27.337172 0 49.499559-22.162778 49.499559-49.500441 0-27.337763-22.162486-49.499559-49.499559-49.499559z"/></g><g transform="matrix(.17592911 0 0 .17592911 4.061896 4.642598)"><path d="m196.63345 249.13549-4.79139-4.86454 1.57897-5.31698c2.70835-9.11999 1.5382-21.99733-3.35794-36.95397-2.95912-9.03946-13.26482-29.43657-18.08496-35.79388l-4.01384-5.29387 3.08677-4.48646c3.84931-5.59479 10.28692-12.42579 11.7102-12.42579 1.83031 0 11.53194 11.45969 15.92752 18.8138 5.2824 8.83779 9.79542 19.40469 12.43876 29.1244 2.54044 9.34135 3.6187 29.35498 1.99055 36.94677-1.4567 6.79237-6.53269 18.81957-9.43899 22.36505l-2.25425 2.75001zm-86.31898-51.38549c1.61427-21.77735 14.19674-48.51011 31.42032-66.75573 9.17024-9.7144 25.88582-21.9847 29.96555-21.9966.43981-.001.65417 3.82096.47636 8.49388-.17782 4.67292.13346 13.05531.69173 18.62753l1.01503 10.13132-7.33101 9.6248c-8.35771 10.97276-10.74856 13.31843-22.55245 22.12625-9.47511 7.07013-24.93483 20.14624-29.43709 24.89842-1.6154 1.70507-3.36974 3.10013-3.89853 3.10013-.58698 0-.72326-3.2132-.34991-8.25z" fill="#45b9bf"/><path d="m181.72231 505.03885c-6.37941-4.0457-12.74745-13.0437-20.41074-28.84023-6.94372-14.31324-9.7227-23.62473-13.19093-44.19862-6.31231-37.44521-6.71131-62.85925-1.54253-98.25.55314-3.78736.40212-4.75-.74518-4.75-2.85743 0-9.51964-6.00839-12.27441-11.06981-2.43264-4.46956-2.74431-5.94462-2.29742-10.87303.28437-3.13607 1.52382-7.67541 2.75434-10.08743 1.23052-2.41201 1.80062-4.53104 1.26688-4.70896-.53373-.17791-4.40707-2.5796-8.60743-5.33709-10.33886-6.78736-24.17378-20.04895-27.491513-26.35224-2.399063-4.55794-2.670055-6.13461-2.676361-15.57144-.0081-12.09441 1.605331-18.50466 6.843674-27.19065 3.2939-5.4618 3.43192-6.08812 3.43192-15.57446 0-25.38431 13.13986-53.80355 35.6432-77.09008 9.1024-9.41919 17.65949-15.92106 25.9473-19.71535 5.21596-2.38794 5.62689-2.82262 5.62689-5.952003 0-5.112507 3.73698-23.406761 6.57459-32.185644 10.05438-31.105855 31.31017-52.547421 60.34996-60.8774073 8.70107-2.4958807 10.14628-2.6219016 24.41202-2.1287129 17.04548.589288 22.81083 1.8496209 35.44716 7.7489092 6.82684 3.187121 9.68431 5.307949 16.24735 12.058837 16.89262 17.376138 20.58048 25.621648 34.98026 78.210601 3.88608 14.19223 8.43349 29.5844 10.10535 34.20482 2.96779 8.20189 3.35359 8.71555 16.29545 21.69596 14.53356 14.57686 27.2918 30.89282 33.8546 43.29518 4.13035 7.80552 4.22961 8.21879 4.08316 17-.23057 13.82457-4.43492 41.85639-8.97328 59.82784-1.31935 5.22446-1.28994 7.55396.28403 22.5 2.49082 23.6522 2.55611 73.88832.1128 86.78671-3.8905 20.53821-15.23638 52.33599-27.86173 78.08484-9.43694 19.24625-14.33338 25.16048-22.94878 27.71898-14.47084 4.29737-19.52218 1.62588-45.91448-24.28272-9.25848-9.0888-11.76348-11.04457-13.46183-10.51028-5.43417 1.70957-30.85508 14.53772-57.58663 29.05993-33.53067 18.21591-38.42172 20.3147-47.34173 20.3147-5.22685 0-7.0415-.49136-10.93596-2.96115zm19.27769-2.47709c4.87998-1.05371 11.73391-4.31437 27.5-13.08275 33.28947-18.51407 38.98726-21.2102 90.82531-42.97756 25.96435-10.90271 33.41459-13.46941 25.47729-8.77724-1.81643 1.07379-11.7386 5.73762-22.04926 10.36407s-18.69727 8.63672-18.6369 8.91172c.2969 1.35245 31.77481 30.50264 34.32112 31.78315 1.61565.8125 5.74012 1.70223 9.16547 1.97718 12.96575 1.04077 19.2032-4.95618 31.47389-30.26033 11.67121-24.06793 20.6445-49.61831 24.3448-69.31891 3.56125-18.96032 4.19262-57.01528 1.48789-89.68109-2.35839-28.48296-12.89859-79.43129-22.08197-106.73792-1.71319-5.09414-7.57674-19.81019-13.03012-32.70232-10.50919-24.84442-18.25511-48.4881-24.85964-75.881672-7.07317-29.337322-15.74511-47.128531-29.86191-61.264172-12.42635-12.442938-26.23807-17.681133-49.14938-18.6402622-21.29145-.8913175-36.15159 3.5234388-51.58694 15.3258112-18.31346 14.003068-29.26415 33.697237-34.97502 62.900535-1.893 9.680109-2.62235 45.4309-1.07548 52.71717.72993 3.4382 1.00406 3.67419 3.65263 3.14447 2.50437-.50087 3.62018.19586 8.89755 5.55581 10.86323 11.03319 19.49313 26.3134 23.2162 41.10687 1.45164 5.76803 2.29223 12.94814 2.63127 22.47568.63744 17.9127-.83358 25.47051-7.55743 38.8287l-4.94728 9.8287 2.07004 4.6713c2.62795 5.93025 3.56237 21.53597 1.75461 29.30342-3.07203 13.19967-12.31674 24.17375-26.6121 31.59033-9.9119 5.1424-18.03313 7.5155-25.97523 7.59022l-6.19365.0583-1.36288 14.56453c-1.91062 20.41798-1.67433 54.40189.48715 70.06453 3.88872 28.17858 8.20266 43.5557 17.29413 61.64532 7.53415 14.99096 11.57286 20.20452 18.28543 23.60468 6.1746 3.12765 8.00807 3.26854 17.07041 1.31176zm40.69346-428.659546c.9936-1.703783 3.34199-4.454084 5.21865-6.111781 2.96077-2.615318 3.98399-2.949534 7.73557-2.526677 2.37791.268024 5.56746 1.330826 7.08789 2.361781l2.76443 1.874463-7.17338.5c-6.02986.420295-7.9076 1.018085-11.77923 3.75-2.53323 1.7875-4.84315 3.25-5.13316 3.25-.29002 0 .28564-1.394004 1.27923-3.097786zm63.30654-11.497844c0-1.755655 4.71233-6.804053 7.39891-7.926579 4.16205-1.739014 7.84127-.880308 11.18588 2.610709 3.20409 3.344353 2.83971 4.403591-1.0112 2.939478-4.14228-1.574893-8.74991-1.232316-13.07359.972022-4.33087 2.208006-4.5 2.260787-4.5 1.40437zm-135.1969 261.89833c28.69487-8.88776 43.57541-36.80107 32.37647-60.73266-3.97288-8.48985-7.49266-12.76694-17.75934-21.58045-4.63113-3.97561-8.42023-7.62466-8.42023-8.10899 0-1.6598 2.50214-.82334 6.43227 2.1503l3.93227 2.97526 2.31773-2.17739c2.87763-2.7034 2.94857-6.28042.35695-17.99961-3.91248-17.69208-12.49274-38.67135-20.2126-49.42106l-3.02215-4.20827-6.55896 5.15009c-21.71933 17.05397-34.99525 28.31071-44.35588 37.60965-9.61051 9.54716-10.81173 11.15295-12.74713 17.04043-2.859652 8.69902-4.14819 19.58741-3.027734 25.58492 2.290774 12.26194 11.154804 22.32825 31.135234 35.35829 7.0125 4.57314 12.75 8.69549 12.75 9.16079s-1.3495.5761-2.99889.24622c-2.71535-.54307-3.14082-.26009-4.5 2.99288-1.93822 4.63881-1.93941 14.90864-.002 18.65487 3.33614 6.45138 13.90007 11.44212 22.00105 10.394 2.2-.28464 7.73639-1.67481 12.3031-3.08927zm242.65641-88.68471c.84727-5.70607 1.53402-13.46691 1.52611-17.24633-.0129-6.15363-.51946-7.91658-4.84814-16.87166-5.53423-11.4491-13.3805-22.38641-24.58321-34.26781-7.93326-8.41386-14.46895-13.90829-13.29961-11.18071.34155.79669 2.4957 5.72352 4.787 10.94852 9.48705 21.63392 21.11851 61.5803 25.91475 89 1.20257 6.875 2.4437 13.625 2.75808 15 .63706 2.78639 5.11532-17.67189 7.74502-35.38201zm-203.50182 5.72309c4.48342-10.61266 5.3678-16.14719 4.76139-29.7972-.78595-17.69118-5.37926-32.58325-15.0303-48.73008-4.39558-7.35411-14.09721-18.8138-15.92752-18.8138-1.42328 0-7.86089 6.831-11.7102 12.42579l-3.08677 4.48646 4.01384 5.29387c4.82014 6.35731 15.12584 26.75442 18.08496 35.79388 4.89614 14.95664 6.06629 27.83398 3.35794 36.95397l-1.57897 5.31698 4.79139 4.86454 4.7914 4.86454 2.25425-2.75001c1.23983-1.51251 3.6152-5.97153 5.27859-9.90894zm-94.39478-38.44121c4.50226-4.75218 19.96198-17.82829 29.43709-24.89842 11.80389-8.80782 14.19474-11.15349 22.55245-22.12625l7.33101-9.6248-1.01503-10.13132c-.55827-5.57222-.86955-13.95461-.69173-18.62753.17781-4.67292-.0366-8.49517-.47636-8.49388-1.4902.004-7.17178 3.25383-14.46555 8.27332-24.22489 16.67129-44.80743 51.97504-46.92032 80.47901-.37335 5.0368-.23707 8.25.34991 8.25.52879 0 2.28313-1.39506 3.89853-3.10013z" fill="#555558"/></g></svg>